<?xml version="1.0" encoding="UTF-8"?>
<svg width="682px" height="142px" viewBox="0 0 682 142" version="1.1" xmlns="http://www.w3.org/2000/svg" xmlns:xlink="http://www.w3.org/1999/xlink">
    <!-- Generator: Sketch 63.1 (92452) - https://sketch.com -->
    <title>cloudlog-logo-onblack</title>
    <desc>Created with Sketch.</desc>
    <defs>
        <linearGradient x1="80.0635369%" y1="59.4805831%" x2="19.9272856%" y2="40.5173877%" id="linearGradient-1">
            <stop stop-color="#F27636" offset="0%"></stop>
            <stop stop-color="#B91E75" offset="100%"></stop>
        </linearGradient>
        <linearGradient x1="78.1076344%" y1="53.6375984%" x2="21.8964218%" y2="46.3630651%" id="linearGradient-2">
            <stop stop-color="#447DC0" offset="0%"></stop>
            <stop stop-color="#5D58A6" offset="100%"></stop>
        </linearGradient>
        <linearGradient x1="77.9838239%" y1="53.3154395%" x2="22.0053036%" y2="46.6847963%" id="linearGradient-3">
            <stop stop-color="#68C076" offset="0%"></stop>
            <stop stop-color="#51C4C9" offset="100%"></stop>
        </linearGradient>
        <linearGradient x1="79.829212%" y1="58.7913536%" x2="20.1457303%" y2="41.2120831%" id="linearGradient-4">
            <stop stop-color="#F7BB49" offset="0%"></stop>
            <stop stop-color="#F89521" offset="100%"></stop>
        </linearGradient>
        <linearGradient x1="72.826919%" y1="68.8276857%" x2="18.5865824%" y2="35.9569917%" id="linearGradient-5">
            <stop stop-color="#4498D3" offset="0%"></stop>
            <stop stop-color="#58C7D8" offset="100%"></stop>
        </linearGradient>
    </defs>
    <g id="Page-1" stroke="none" stroke-width="1" fill="none" fill-rule="evenodd">
        <g id="Artboard" transform="translate(-1.000000, 0.000000)">
            <g id="cloudlog-logo-onblack">
                <g id="Black-Background-Logo-Design-(RGB-Color)">
                    <g id="Your_design" fill-rule="nonzero">
                        <path d="M168.62,76.02 C168.62,73.37 170.76,71.23 173.41,71.23 L192.16,71.23 C194.81,71.23 196.95,73.37 196.95,76.02 C196.95,78.67 194.81,80.81 192.16,80.81 L173.41,80.81 C170.76,80.81 168.62,78.67 168.62,76.02 Z" id="Path" fill="url(#linearGradient-1)"></path>
                        <path d="M116.35,99.16 L175.8,99.16 C178.45,99.16 180.59,97.02 180.59,94.37 C180.59,91.72 178.45,89.58 175.8,89.58 L116.35,89.58 C113.7,89.58 111.56,91.72 111.56,94.37 C111.56,97.02 113.71,99.16 116.35,99.16 Z" id="Path" fill="url(#linearGradient-2)"></path>
                        <path d="M132.71,119.51 L198.55,119.51 C201.2,119.51 203.34,117.37 203.34,114.72 C203.34,112.07 201.2,109.93 198.55,109.93 L132.71,109.93 C130.06,109.93 127.92,112.07 127.92,114.72 C127.92,117.37 130.06,119.51 132.71,119.51 Z" id="Path" fill="url(#linearGradient-3)"></path>
                        <path d="M193.36,99.16 L214.11,99.16 C216.76,99.16 218.9,97.02 218.9,94.37 C218.9,91.72 216.76,89.58 214.11,89.58 L193.36,89.58 C190.71,89.58 188.57,91.72 188.57,94.37 C188.57,97.02 190.71,99.16 193.36,99.16 Z" id="Path" fill="url(#linearGradient-4)"></path>
                        <path d="M120.09,115.18 C120.09,112.79 118.15,110.85 115.76,110.85 L41.07,110.85 C29.83,110.73 20.15,104.62 14.49,94.08 C7.87,81.74 8.17,66.12 15.25,55.21 C20.42,47.22 31.42,38.06 54.44,39.71 L57.73,39.95 L58.83,36.84 C64.87,19.82 79.26,9.04 95.59,9.48 C111.03,9.86 123.67,20.27 128.58,36.63 L129.65,40.2 L133.34,39.67 C147.76,37.6 166.38,41.87 175.42,60.06 C176.48,62.2 179.09,63.07 181.23,62.01 C183.37,60.95 184.25,58.34 183.18,56.2 C172.84,35.39 152.54,29.39 135.72,30.7 C129,12.61 113.98,1.27 95.8,0.82 C76.68,0.37 59.75,12.06 51.83,30.9 C32.11,30.26 16.61,37.16 7.96,50.5 C-0.92,64.2 -1.36,82.91 6.84,98.18 C14.04,111.59 26.48,119.36 41.01,119.510038 L115.74,119.510038 C118.16,119.52 120.09,117.58 120.09,115.18 Z" id="Path" fill="url(#linearGradient-5)"></path>
                        <g id="Group" transform="translate(242.000000, 39.000000)" fill="#FFFFFF">
                            <path d="M15.42,77.37 C10.83,74.84 7.23,71.36 4.64,66.91 C2.04,62.47 0.74,57.43 0.74,51.79 C0.74,46.16 2.04,41.12 4.64,36.68 C7.23,32.24 10.83,28.76 15.42,26.28 C20,23.78 25.22,22.54 31.07,22.54 C36.28,22.54 40.91,23.59 45,25.68 C49.08,27.78 52.24,30.8 54.48,34.78 L46.57,39.87 C44.76,37.13 42.52,35.07 39.85,33.69 C37.17,32.32 34.21,31.64 30.96,31.64 C27.2,31.64 23.83,32.47 20.83,34.13 C17.82,35.79 15.48,38.16 13.78,41.23 C12.09,44.3 11.23,47.82 11.23,51.79 C11.23,55.84 12.09,59.4 13.78,62.47 C15.47,65.54 17.82,67.91 20.83,69.57 C23.82,71.23 27.2,72.06 30.96,72.06 C34.21,72.06 37.17,71.37 39.85,70.01 C42.52,68.63 44.76,66.58 46.57,63.83 L54.48,68.81 C52.24,72.79 49.08,75.84 45,77.96 C40.92,80.1 36.28,81.16 31.07,81.16 C25.22,81.16 20,79.9 15.42,77.37 Z" id="Path"></path>
                            <polygon id="Path" points="64.39 0.11 74.79 0.11 74.79 80.52 64.39 80.52"></polygon>
                            <path d="M100.7,77.37 C96.15,74.84 92.59,71.36 90.03,66.91 C87.46,62.47 86.18,57.43 86.18,51.79 C86.18,46.16 87.46,41.12 90.03,36.68 C92.59,32.24 96.15,28.76 100.7,26.28 C105.25,23.78 110.38,22.54 116.09,22.54 C121.8,22.54 126.92,23.78 131.42,26.28 C135.94,28.77 139.47,32.24 142.04,36.68 C144.6,41.12 145.88,46.16 145.88,51.79 C145.88,57.43 144.6,62.47 142.04,66.91 C139.47,71.35 135.93,74.84 131.42,77.37 C126.91,79.9 121.8,81.16 116.09,81.16 C110.38,81.16 105.25,79.9 100.7,77.37 Z M126,69.52 C128.93,67.82 131.22,65.44 132.89,62.37 C134.54,59.3 135.38,55.78 135.38,51.8 C135.38,47.83 134.54,44.31 132.89,41.24 C131.22,38.17 128.93,35.8 126,34.14 C123.08,32.48 119.77,31.65 116.08,31.65 C112.39,31.65 109.1,32.48 106.16,34.14 C103.24,35.8 100.92,38.17 99.23,41.24 C97.54,44.31 96.68,47.83 96.68,51.8 C96.68,55.78 97.54,59.3 99.23,62.37 C100.92,65.44 103.24,67.82 106.16,69.52 C109.09,71.21 112.39,72.06 116.08,72.06 C119.77,72.06 123.08,71.21 126,69.52 Z" id="Shape"></path>
                            <path d="M210.37,23.08 L210.37,80.51 L200.52,80.51 L200.52,71.84 C198.41,74.8 195.65,77.09 192.22,78.72 C188.79,80.35 185.06,81.15 181,81.15 C173.35,81.15 167.32,79.04 162.9,74.81 C158.5,70.59 156.3,64.35 156.3,56.12 L156.3,23.07 L166.7,23.07 L166.7,54.92 C166.7,60.49 168.03,64.7 170.71,67.54 C173.38,70.4 177.21,71.83 182.19,71.83 C187.68,71.83 192.01,70.17 195.2,66.85 C198.37,63.53 199.96,58.83 199.96,52.76 L199.96,23.07 L210.37,23.07 L210.37,23.08 Z" id="Path"></path>
                            <path d="M281.17,0.11 L281.17,80.52 L271.2,80.52 L271.2,71.42 C268.88,74.59 265.96,77.02 262.42,78.68 C258.89,80.34 254.98,81.17 250.72,81.17 C245.16,81.17 240.18,79.94 235.77,77.49 C231.37,75.03 227.92,71.59 225.42,67.14 C222.93,62.71 221.68,57.59 221.68,51.81 C221.68,46.03 222.93,40.94 225.42,36.54 C227.92,32.13 231.37,28.7 235.77,26.24 C240.18,23.78 245.17,22.56 250.72,22.56 C254.85,22.56 258.64,23.33 262.11,24.89 C265.57,26.45 268.46,28.73 270.78,31.77 L270.78,0.13 L281.17,0.13 L281.17,0.11 Z M261.45,69.52 C264.41,67.82 266.72,65.44 268.39,62.37 C270.04,59.3 270.88,55.78 270.88,51.8 C270.88,47.83 270.04,44.31 268.39,41.24 C266.72,38.17 264.41,35.8 261.45,34.14 C258.49,32.48 255.21,31.65 251.59,31.65 C247.91,31.65 244.61,32.48 241.67,34.14 C238.75,35.8 236.43,38.17 234.74,41.24 C233.05,44.31 232.19,47.83 232.19,51.8 C232.19,55.78 233.05,59.3 234.74,62.37 C236.43,65.44 238.75,67.82 241.67,69.52 C244.6,71.21 247.9,72.06 251.59,72.06 C255.2,72.06 258.48,71.21 261.45,69.52 Z" id="Shape"></path>
                            <polygon id="Path" points="292.49 0.11 302.89 0.11 302.89 80.52 292.49 80.52"></polygon>
                            <path d="M328.79,77.37 C324.24,74.84 320.68,71.36 318.12,66.91 C315.55,62.47 314.27,57.43 314.27,51.79 C314.27,46.16 315.55,41.12 318.12,36.68 C320.68,32.24 324.24,28.76 328.79,26.28 C333.34,23.78 338.47,22.54 344.18,22.54 C349.89,22.54 355.01,23.78 359.51,26.28 C364.03,28.77 367.56,32.24 370.13,36.68 C372.69,41.12 373.97,46.16 373.97,51.79 C373.97,57.43 372.69,62.47 370.13,66.91 C367.56,71.35 364.02,74.84 359.51,77.37 C355,79.9 349.89,81.16 344.18,81.16 C338.48,81.16 333.34,79.9 328.79,77.37 Z M354.1,69.52 C357.03,67.82 359.32,65.44 360.99,62.37 C362.64,59.3 363.48,55.78 363.48,51.8 C363.48,47.83 362.64,44.31 360.99,41.24 C359.32,38.17 357.03,35.8 354.1,34.14 C351.18,32.48 347.87,31.65 344.18,31.65 C340.49,31.65 337.2,32.48 334.26,34.14 C331.34,35.8 329.02,38.17 327.33,41.24 C325.64,44.31 324.78,47.83 324.78,51.8 C324.78,55.78 325.64,59.3 327.33,62.37 C329.02,65.44 331.34,67.82 334.26,69.52 C337.19,71.21 340.49,72.06 344.18,72.06 C347.87,72.06 351.18,71.21 354.1,69.52 Z" id="Shape"></path>
                            <path d="M441,23.08 L441,72.71 C441,82.75 438.5,90.17 433.52,94.98 C428.54,99.78 421.1,102.19 411.2,102.19 C405.78,102.19 400.61,101.45 395.7,99.97 C390.79,98.49 386.82,96.37 383.78,93.63 L388.76,85.61 C391.43,87.93 394.74,89.75 398.68,91.08 C402.62,92.42 406.68,93.09 410.87,93.09 C417.59,93.09 422.55,91.5 425.77,88.32 C428.98,85.15 430.59,80.31 430.59,73.8 L430.59,69.25 C428.13,72.21 425.12,74.44 421.54,75.92 C417.97,77.4 414.08,78.14 409.9,78.14 C404.41,78.14 399.43,76.97 395,74.62 C390.56,72.27 387.06,68.98 384.53,64.76 C382,60.54 380.74,55.71 380.74,50.29 C380.74,44.87 382,40.05 384.53,35.82 C387.06,31.6 390.55,28.33 395,26.01 C399.43,23.7 404.41,22.55 409.9,22.55 C414.23,22.55 418.26,23.34 421.97,24.93 C425.7,26.52 428.74,28.87 431.13,31.97 L431.13,23.09 L441,23.09 L441,23.08 Z M421.22,66.64 C424.21,65.05 426.56,62.83 428.26,59.98 C429.96,57.12 430.81,53.88 430.81,50.28 C430.81,44.71 428.97,40.22 425.29,36.79 C421.61,33.36 416.87,31.65 411.09,31.65 C405.24,31.65 400.48,33.36 396.79,36.79 C393.1,40.22 391.26,44.72 391.26,50.28 C391.26,53.89 392.12,57.13 393.81,59.98 C395.5,62.83 397.85,65.05 400.86,66.64 C403.85,68.24 407.26,69.03 411.09,69.03 C414.84,69.03 418.22,68.24 421.22,66.64 Z" id="Shape"></path>
                        </g>
                    </g>
                </g>
            </g>
        </g>
    </g>
</svg>